<svg width="109" height="42" viewBox="0 0 109 42" fill="none" xmlns="http://www.w3.org/2000/svg">
<path d="M0 39.6923V31.0588H5.75171V32.2806H1.38645V34.7511H5.51834V35.9729H1.38645V38.4706H5.75171V39.6923H0Z" fill="#262D38"/>
<path d="M10.1855 39.6923V33.4208H11.4485V34.6561L11.2975 34.4932C11.453 34.095 11.7047 33.7963 12.0525 33.5972C12.3911 33.3891 12.7891 33.285 13.2467 33.285C13.7134 33.285 14.1253 33.3846 14.4822 33.5837C14.8391 33.7828 15.1228 34.0633 15.3333 34.4253C15.5346 34.7782 15.6353 35.1855 15.6353 35.647V39.6923H14.3174V36C14.3174 35.6832 14.258 35.4117 14.139 35.1855C14.0292 34.9683 13.8644 34.8009 13.6448 34.6832C13.4343 34.5656 13.1918 34.5068 12.9173 34.5068C12.6427 34.5068 12.4002 34.5656 12.1897 34.6832C11.9701 34.8009 11.8008 34.9728 11.6818 35.1991C11.572 35.4253 11.5171 35.6923 11.5171 36V39.6923H10.1855Z" fill="#262D38"/>
<path d="M23.0617 39.7602C22.4028 39.7602 21.8903 39.5747 21.5243 39.2036C21.1582 38.8326 20.9752 38.3122 20.9752 37.6425V34.6018H19.8633V33.4208H20.028C20.33 33.4208 20.5634 33.3394 20.7281 33.1765C20.8928 33.0045 20.9752 32.7692 20.9752 32.4706V31.9955H22.293V33.4208H23.7344V34.6018H22.293V37.5747C22.293 37.7919 22.3296 37.9774 22.4028 38.1312C22.4669 38.2851 22.5767 38.4027 22.7323 38.4842C22.8878 38.5566 23.0938 38.5928 23.35 38.5928C23.4141 38.5928 23.4827 38.5928 23.5559 38.5928C23.6383 38.5837 23.7115 38.5747 23.7755 38.5656V39.6923C23.6657 39.7014 23.5468 39.7149 23.4186 39.733C23.2814 39.7511 23.1624 39.7602 23.0617 39.7602Z" fill="#262D38"/>
<path d="M31.202 39.828C30.5705 39.828 30.0123 39.6832 29.5273 39.3936C29.0331 39.104 28.6487 38.7104 28.3742 38.2126C28.1088 37.7149 27.9761 37.1583 27.9761 36.543C27.9761 35.9095 28.1133 35.3484 28.3879 34.8597C28.6624 34.371 29.0331 33.9864 29.4998 33.7058C29.9665 33.4253 30.4973 33.285 31.0922 33.285C31.568 33.285 31.9936 33.3665 32.3688 33.5294C32.744 33.6923 33.0597 33.914 33.316 34.1945C33.5722 34.4751 33.769 34.7963 33.9062 35.1583C34.0435 35.5203 34.1121 35.9049 34.1121 36.3122C34.1121 36.4208 34.1076 36.5294 34.0984 36.638C34.0984 36.7375 34.0847 36.8371 34.0572 36.9366H29.0056V35.8914H33.3022L32.6708 36.3665C32.7532 35.9864 32.7303 35.647 32.6022 35.3484C32.474 35.0497 32.2773 34.8144 32.0119 34.6425C31.7556 34.4706 31.4491 34.3846 31.0922 34.3846C30.7444 34.3846 30.4333 34.4706 30.1587 34.6425C29.8842 34.8144 29.6737 35.0633 29.5273 35.3891C29.3808 35.7058 29.3213 36.095 29.3488 36.5565C29.3122 36.9728 29.3717 37.3393 29.5273 37.6561C29.692 37.9728 29.9208 38.2217 30.2136 38.4027C30.5065 38.5837 30.8405 38.6742 31.2157 38.6742C31.6001 38.6742 31.9249 38.5882 32.1903 38.4163C32.4557 38.2443 32.6662 38.0226 32.8218 37.7511L33.9062 38.2805C33.7781 38.5701 33.5859 38.8325 33.3297 39.0678C33.0643 39.3031 32.7486 39.4887 32.3825 39.6244C32.0256 39.7601 31.6321 39.828 31.202 39.828Z" fill="#262D38"/>
<path d="M38.6833 39.6923V33.4208H39.9463V34.6832L39.8227 34.5068C39.9691 34.0905 40.1979 33.7918 40.5091 33.6108C40.8202 33.4299 41.1954 33.3394 41.6347 33.3394H42.0191V34.5339H41.47C41.0307 34.5339 40.6784 34.6697 40.413 34.9412C40.1384 35.2036 40.0012 35.5837 40.0012 36.0814V39.6923H38.6833Z" fill="#262D38"/>
<path fill-rule="evenodd" clip-rule="evenodd" d="M46.1921 42V33.4208H47.455V34.2081C47.6747 33.9547 47.9401 33.7466 48.2512 33.5837C48.6356 33.3846 49.0794 33.285 49.5828 33.285C50.1776 33.285 50.7175 33.4298 51.2026 33.7194C51.6785 34 52.0582 34.3891 52.3419 34.8868C52.6165 35.3755 52.7538 35.9321 52.7538 36.5565C52.7538 37.1719 52.6165 37.7239 52.3419 38.2126C52.0582 38.7104 51.6785 39.104 51.2026 39.3936C50.7267 39.6832 50.1868 39.828 49.5828 39.828C49.0886 39.828 48.6402 39.7285 48.2375 39.5294C47.9538 39.3846 47.7159 39.1945 47.5237 38.9592V42H46.1921ZM47.455 34.2081C47.4001 34.2805 47.3498 34.3529 47.304 34.4253L47.455 34.7239V34.2081ZM47.51 38.9592V38.4027L47.304 38.647C47.3681 38.7556 47.4367 38.8597 47.51 38.9592ZM49.4455 38.6063C49.8207 38.6063 50.1502 38.5158 50.4339 38.3348C50.7267 38.1629 50.9555 37.9185 51.1202 37.6018C51.2849 37.285 51.3673 36.9321 51.3673 36.543C51.3673 36.1448 51.2849 35.7918 51.1202 35.4841C50.9555 35.1764 50.7267 34.9366 50.4339 34.7647C50.1502 34.5837 49.8207 34.4932 49.4455 34.4932C49.0794 34.4932 48.75 34.5837 48.4571 34.7647C48.1643 34.9366 47.9309 35.1764 47.757 35.4841C47.5923 35.7918 47.51 36.1448 47.51 36.543C47.51 36.9321 47.5923 37.285 47.757 37.6018C47.9309 37.9185 48.1643 38.1629 48.4571 38.3348C48.75 38.5158 49.0794 38.6063 49.4455 38.6063Z" fill="#262D38"/>
<path d="M57.3113 39.6923V33.4208H58.5879V34.6832L58.4644 34.5068C58.6016 34.0905 58.8304 33.7918 59.1507 33.6108C59.4619 33.4299 59.8325 33.3394 60.2626 33.3394H60.647V34.5339H60.0979C59.6678 34.5339 59.3155 34.6697 59.0409 34.9412C58.7755 35.2036 58.6428 35.5837 58.6428 36.0814V39.6923H57.3113Z" fill="#262D38"/>
<path d="M64.8337 32.5656V31.0588H66.1516V32.5656H64.8337ZM64.8337 39.6923V33.4208H66.1653V39.6923H64.8337Z" fill="#262D38"/>
<path d="M73.3172 39.828C72.6674 39.828 72.1 39.6696 71.615 39.3529C71.13 39.0362 70.7868 38.6108 70.5854 38.0769L71.615 37.6018C71.7797 37.9547 72.0131 38.2353 72.3151 38.4434C72.6171 38.6515 72.9511 38.7556 73.3172 38.7556C73.6283 38.7556 73.8846 38.6877 74.0859 38.552C74.2781 38.4163 74.3742 38.2262 74.3742 37.9819C74.3742 37.828 74.333 37.7058 74.2506 37.6153C74.1591 37.5158 74.0493 37.4344 73.9212 37.371C73.793 37.3077 73.6649 37.2624 73.5368 37.2353L72.5347 36.9502C71.9856 36.7963 71.5784 36.5656 71.313 36.2579C71.0384 35.9411 70.9012 35.5746 70.9012 35.1583C70.9103 34.7782 71.011 34.4479 71.2032 34.1674C71.3954 33.8868 71.6653 33.6696 72.0131 33.5158C72.3517 33.362 72.736 33.285 73.1662 33.285C73.7427 33.285 74.2598 33.4253 74.7173 33.7058C75.1658 33.9864 75.4861 34.3801 75.6782 34.8868L74.6487 35.362C74.5297 35.0543 74.333 34.8144 74.0584 34.6425C73.793 34.4615 73.491 34.371 73.1524 34.371C72.8687 34.371 72.64 34.4389 72.4661 34.5746C72.2922 34.7104 72.2053 34.8868 72.2053 35.104C72.2053 35.2488 72.2464 35.371 72.3288 35.4706C72.402 35.5611 72.5027 35.638 72.6308 35.7013C72.7498 35.7556 72.8779 35.8054 73.0152 35.8506L74.0447 36.1493C74.5663 36.2941 74.969 36.5203 75.2527 36.828C75.5364 37.1448 75.6782 37.5203 75.6782 37.9547C75.6782 38.3258 75.5776 38.6515 75.3762 38.9321C75.1749 39.2126 74.9004 39.4298 74.5526 39.5837C74.1957 39.7466 73.7839 39.828 73.3172 39.828Z" fill="#262D38"/>
<path d="M83.2281 39.828C82.5875 39.828 82.0247 39.6832 81.5397 39.3936C81.0547 39.104 80.6749 38.7104 80.4003 38.2126C80.1258 37.7149 79.9885 37.1583 79.9885 36.543C79.9885 35.9095 80.1304 35.3484 80.4141 34.8597C80.6886 34.371 81.0593 33.9864 81.526 33.7058C81.9927 33.4253 82.5235 33.285 83.1183 33.285C83.5942 33.285 84.0198 33.3665 84.395 33.5294C84.7702 33.6923 85.0859 33.914 85.3421 34.1945C85.5984 34.4751 85.7951 34.7963 85.9324 35.1583C86.0697 35.5203 86.1383 35.9049 86.1383 36.3122C86.1383 36.4208 86.1338 36.5294 86.1246 36.638C86.1154 36.7375 86.1017 36.8371 86.0834 36.9366H81.0318V35.8914H85.3284L84.697 36.3665C84.7793 35.9864 84.7564 35.647 84.6283 35.3484C84.4911 35.0497 84.2943 34.8144 84.0381 34.6425C83.7727 34.4706 83.4661 34.3846 83.1183 34.3846C82.7706 34.3846 82.4594 34.4706 82.1849 34.6425C81.9103 34.8144 81.6998 35.0633 81.5534 35.3891C81.3978 35.7058 81.3384 36.095 81.375 36.5565C81.3384 36.9728 81.3978 37.3393 81.5534 37.6561C81.7182 37.9728 81.9469 38.2217 82.2398 38.4027C82.5326 38.5837 82.8667 38.6742 83.2419 38.6742C83.6171 38.6742 83.942 38.5882 84.2165 38.4163C84.4819 38.2443 84.6924 38.0226 84.848 37.7511L85.9324 38.2805C85.8043 38.5701 85.6075 38.8325 85.3421 39.0678C85.0859 39.3031 84.7748 39.4887 84.4087 39.6244C84.0518 39.7601 83.6583 39.828 83.2281 39.828Z" fill="#262D38"/>
<path fill-rule="evenodd" clip-rule="evenodd" d="M95.3906 39.6923L98.4518 31.0588H100.168L103.229 39.6923H101.76L101.087 37.7511H97.5458L96.8594 39.6923H95.3906ZM97.9439 36.543H100.676L99.3166 32.5792L97.9439 36.543ZM99.3166 32.5928L99.5088 32.0362H99.1244L99.3166 32.5928Z" fill="#262D38"/>
<path d="M106.208 39.6923V31.0588H107.594V39.6923H106.208Z" fill="#262D38"/>
<path d="M45.8215 0C45.8215 0 45.8215 1.20814 45.8215 1.27602C45.8215 1.9276 48.1003 2.55204 48.1003 2.55204C48.1003 2.55204 45.8215 3.24434 45.8215 3.82805V5.11765L50.379 2.55204L45.8215 0Z" fill="url(#paint0_linear_126_3222)"/>
<path d="M45.8215 26.8235V8.94571C45.8215 7.20815 47.2492 5.79639 49.0063 5.79639V26.8235H45.8215Z" fill="url(#paint1_linear_126_3222)"/>
<path d="M76.8999 26.8235V5.7964H80.0983V8.32128C81.2103 6.51585 84.546 5.45703 86.2756 5.45703C87.7581 5.45703 90.0094 5.7964 91.2998 6.48871C92.5901 7.17649 93.638 8.19911 94.4433 9.55658C95.2486 10.914 95.6513 12.5883 95.6513 14.5792V26.8235H92.4666V14.6606C92.4666 12.7602 91.9129 11.2263 90.8056 10.0588C89.6983 8.90047 88.266 8.32128 86.509 8.32128C85.3193 8.32128 84.244 8.58373 83.2831 9.10861C82.313 9.64255 81.5397 10.3937 80.9632 11.362C80.3775 12.3303 80.0892 13.4435 80.0983 14.7014V26.8235H76.8999Z" fill="url(#paint2_linear_126_3222)"/>
<path d="M108.033 8.56561V5.79638H103.146V0H99.948V0.20362V1.50679V22.4932C99.948 24.8824 101.911 26.8235 104.327 26.8235H107.525V24.0272H104.794C103.888 24.0272 103.146 23.2941 103.146 22.3982V8.56561H108.033Z" fill="url(#paint3_linear_126_3222)"/>
<path fill-rule="evenodd" clip-rule="evenodd" d="M72.6033 20.8914C71.8621 22.5611 70.7776 23.9457 69.3225 25.0317C67.7119 26.2263 65.6482 26.8236 63.1315 26.8236C60.9718 26.8236 59.0866 26.3394 57.4759 25.3711C55.8561 24.4027 54.6023 23.0905 53.7147 21.4344C52.8178 19.7783 52.3694 17.9548 52.3694 15.9638C52.3694 13.9457 52.7949 12.1177 53.646 10.4797C54.4971 8.84166 55.7143 7.53849 57.2975 6.57017C58.8898 5.60184 60.7613 5.11768 62.9119 5.11768C65.0991 5.11768 66.9797 5.60184 68.5538 6.57017C70.1278 7.53849 71.3404 8.84166 72.1915 10.4797C73.0426 12.1177 73.4681 13.9457 73.4681 15.9638V17.2263H55.6502C55.8149 18.4661 56.2176 19.5973 56.8582 20.6199C57.4988 21.6426 58.3545 22.4525 59.4252 23.0498C60.5051 23.6561 61.7542 23.9593 63.1727 23.9593C64.6736 23.9593 65.9365 23.629 66.9614 22.9684C67.8125 22.4254 68.4577 21.7059 69.0068 20.8914H72.6033ZM55.6776 14.2941H70.1324C69.8487 12.4932 69.0846 10.991 67.84 9.78736C66.5954 8.58374 64.9527 7.98193 62.9119 7.98193C60.8711 7.98193 59.233 8.58374 57.9975 9.78736C56.7621 10.991 55.9888 12.4932 55.6776 14.2941Z" fill="url(#paint4_linear_126_3222)"/>
<path d="M39.0952 20.8914C38.6422 21.638 38.0382 22.2896 37.2969 22.819C36.2354 23.5792 34.9542 23.9593 33.4533 23.9593C31.8884 23.9593 30.5248 23.5928 29.3626 22.8598C28.2004 22.1358 27.3081 21.1629 26.6858 19.9412C26.0635 18.7195 25.7523 17.3937 25.7523 15.9638C25.7523 14.5068 26.0635 13.1765 26.6858 11.9729C27.3081 10.7693 28.2004 9.80093 29.3626 9.0679C30.5248 8.34392 31.8884 7.98193 33.4533 7.98193C34.9542 7.98193 36.2354 8.3575 37.2969 9.10863C38.0382 9.65161 38.6422 10.2896 39.0952 11.0498H42.6643C41.9779 9.46157 40.9347 8.11768 39.4658 7.05885C37.6996 5.76473 35.5536 5.11768 33.0278 5.11768C30.8955 5.11768 29.0515 5.60184 27.4957 6.57017C25.9399 7.53849 24.7274 8.84166 23.858 10.4797C22.9977 12.1177 22.5676 13.9457 22.5676 15.9638C22.5676 17.9548 22.9977 19.7783 23.858 21.4344C24.7274 23.0905 25.9399 24.4027 27.4957 25.3711C29.0515 26.3394 30.8955 26.8236 33.0278 26.8236C35.5536 26.8236 37.6996 26.1765 39.4658 24.8824C40.9347 23.8236 41.9779 22.4797 42.6643 20.8914H39.0952Z" fill="url(#paint5_linear_126_3222)"/>
<path d="M18.669 15.3665C17.6258 14.5113 16.3766 13.819 14.8254 13.2625C12.5467 12.448 8.60697 11.0905 7.68724 10.7919C6.39688 10.3846 5.35361 9.86881 4.58489 9.25795C3.77498 8.60636 3.45926 7.71043 3.63771 6.59731C4.04953 3.9774 6.42434 2.76926 10.6798 3.00003C12.931 3.1222 14.5097 3.62446 15.3745 4.50681C16.0197 5.17197 16.3903 5.93215 16.5276 6.76021H20.179C20.0967 5.87786 19.877 5.02265 19.4789 4.22175C18.9298 3.10862 17.9827 2.1584 16.6923 1.38464C15.3882 0.610887 13.5762 0.162923 11.3112 0.0407514C7.96179 -0.135719 5.31243 0.380118 3.41807 1.56111C1.31781 2.87786 0.137267 4.69686 0.0274487 6.80093C-0.192187 10.534 1.50999 11.8914 3.47298 12.7874C3.51416 12.8145 11.2151 15.5973 12.5604 16.0181C13.8508 16.4254 14.894 16.9412 15.6628 17.5521C16.4727 18.2036 16.7884 19.0996 16.6099 20.2127C16.1844 22.8326 13.8233 24.0408 9.55415 23.81C7.31661 23.7014 5.73798 23.1855 4.87316 22.3032C4.22798 21.638 3.85735 20.8779 3.72007 20.0498H0.0686303C0.150994 20.9322 0.370629 21.7874 0.754992 22.5883C1.31781 23.7014 2.25126 24.6652 3.55535 25.4254C4.85943 26.1991 6.67143 26.6471 8.93642 26.7693C12.2721 26.9457 14.9352 26.4435 16.8296 25.2489C18.9298 23.9322 20.0967 22.1267 20.2202 20.0091C20.3849 17.362 19.3554 15.9367 18.669 15.3665Z" fill="url(#paint6_linear_126_3222)"/>
<defs>
<linearGradient id="paint0_linear_126_3222" x1="48.2064" y1="-3.58939" x2="48.8217" y2="6.69515" gradientUnits="userSpaceOnUse">
<stop offset="0.5" stop-color="#B74138"/>
<stop offset="1" stop-color="#441A16"/>
</linearGradient>
<linearGradient id="paint1_linear_126_3222" x1="47.4881" y1="-8.95153" x2="60.7625" y2="28.7871" gradientUnits="userSpaceOnUse">
<stop offset="0.5" stop-color="#B74138"/>
<stop offset="1" stop-color="#441A16"/>
</linearGradient>
<linearGradient id="paint2_linear_126_3222" x1="86.7124" y1="-9.52891" x2="89.3186" y2="33.4052" gradientUnits="userSpaceOnUse">
<stop offset="0.5" stop-color="#B74138"/>
<stop offset="1" stop-color="#441A16"/>
</linearGradient>
<linearGradient id="paint3_linear_126_3222" x1="104.179" y1="-18.8134" x2="113.451" y2="33.646" gradientUnits="userSpaceOnUse">
<stop offset="0.5" stop-color="#B74138"/>
<stop offset="1" stop-color="#441A16"/>
</linearGradient>
<linearGradient id="paint4_linear_126_3222" x1="63.4102" y1="-10.1063" x2="65.8023" y2="33.5393" gradientUnits="userSpaceOnUse">
<stop offset="0.5" stop-color="#B74138"/>
<stop offset="1" stop-color="#441A16"/>
</linearGradient>
<linearGradient id="paint5_linear_126_3222" x1="33.0841" y1="-10.1063" x2="35.5947" y2="33.526" gradientUnits="userSpaceOnUse">
<stop offset="0.5" stop-color="#B74138"/>
<stop offset="1" stop-color="#441A16"/>
</linearGradient>
<linearGradient id="paint6_linear_126_3222" x1="10.5942" y1="-18.7876" x2="14.3892" y2="34.9886" gradientUnits="userSpaceOnUse">
<stop offset="0.5" stop-color="#B74138"/>
<stop offset="1" stop-color="#441A16"/>
</linearGradient>
</defs>
</svg>
